<svg xmlns="http://www.w3.org/2000/svg" xmlns:xlink="http://www.w3.org/1999/xlink" xmlns:lucid="lucid" width="439" height="530"><g transform="translate(-415 -79)" lucid:page-tab-id="0_0"><path d="M429.87 101.72a6 6 0 0 1 6-6h394.25a6 6 0 0 1 6 6v483.64a6 6 0 0 1-6 6H435.87a6 6 0 0 1-6-6z" stroke="#635dff" stroke-width="3" fill-opacity="0"/><path d="M532.07 179.58a6 6 0 0 1 6-6h189.86a6 6 0 0 1 6 6v39.03a6 6 0 0 1-6 6H538.07a6 6 0 0 1-6-6z" stroke="#635dff" stroke-width="3" fill-opacity="0"/><use xlink:href="#a" transform="matrix(1,0,0,1,534.6173352767175,176.1283312618742) translate(23.083333333333357 27.499999999999993)"/><use xlink:href="#b" transform="matrix(1,0,0,1,534.6173352767175,176.1283312618742) translate(119.52777777777777 27.499999999999993)"/><path d="M498.13 110.37a6 6 0 0 1 6-6h257.73a6 6 0 0 1 6 6v40a6 6 0 0 1-6 6H504.13a6 6 0 0 1-6-6z" fill="none"/><use xlink:href="#c" transform="matrix(1,0,0,1,503.134229711447,109.37209240509509) translate(61.44444444444446 15.999999999999995)"/><use xlink:href="#d" transform="matrix(1,0,0,1,503.134229711447,109.37209240509509) translate(123.1111111111111 15.999999999999995)"/><path d="M469.82 277.15a6 6 0 0 1 6-6h314.35a6 6 0 0 1 6 6v276.87a6 6 0 0 1-6 6H475.82a6 6 0 0 1-6-6z" stroke="#635dff" stroke-width="3" fill-opacity="0"/><use xlink:href="#e" transform="matrix(1,0,0,1,484.26729923680864,285.5969759545039) translate(79.66666666666669 15.999999999999995)"/><use xlink:href="#f" transform="matrix(1,0,0,1,484.26729923680864,285.5969759545039) translate(148.44444444444446 15.999999999999995)"/><path d="M553.1 345.44a6 6 0 0 1 6-6h147.8a6 6 0 0 1 6 6v62.77a6 6 0 0 1-6 6H559.1a6 6 0 0 1-6-6z" stroke="#635dff" stroke-width="3" fill-opacity="0"/><use xlink:href="#g" transform="matrix(1,0,0,1,556.8349649686209,343.17817286069555) translate(12.138888888888914 26.624999999999993)"/><use xlink:href="#h" transform="matrix(1,0,0,1,556.8349649686209,343.17817286069555) translate(92.02777777777779 26.624999999999993)"/><use xlink:href="#i" transform="matrix(1,0,0,1,556.8349649686209,343.17817286069555) translate(35.44444444444446 50.624999999999986)"/><path d="M552.96 461.8a6 6 0 0 1 6-6h147.8a6 6 0 0 1 6 6v62.77a6 6 0 0 1-6 6h-147.8a6 6 0 0 1-6-6z" stroke="#635dff" stroke-width="3" fill-opacity="0"/><use xlink:href="#j" transform="matrix(1,0,0,1,556.6944001685703,459.5440372005701) translate(3.2777777777778 37.24999999999999)"/><use xlink:href="#k" transform="matrix(1,0,0,1,556.6944001685703,459.5440372005701) translate(67.61111111111111 37.24999999999999)"/><path d="M632.9 131.42l.05 22.16M632.9 131.44v-1.02" stroke="#635dff" stroke-width="2" fill="none"/><path d="M633 168.84l-4.68-14.25 9.27-.04z" stroke="#635dff" stroke-width="2" fill="#635dff"/><path d="M633 227.1v24.05" stroke="#635dff" stroke-width="2" fill="none"/><path d="M634 227.13h-2v-1.02h2z" stroke="#635dff" stroke-width=".05" fill="#635dff"/><path d="M633 266.42l-4.64-14.27h9.27z" stroke="#635dff" stroke-width="2" fill="#635dff"/><path d="M632.2 416.7v19.1" stroke="#635dff" stroke-width="2" fill="none"/><path d="M633.2 416.73h-2v-1.02h2z" stroke="#635dff" stroke-width=".05" fill="#635dff"/><path d="M632.2 451.07l-4.62-14.27h9.27z" stroke="#635dff" stroke-width="2" fill="#635dff"/><path d="M632.86 306.2l.05 13.24M632.86 306.22v-1.03" stroke="#635dff" stroke-width="2" fill="none"/><path d="M632.98 334.7l-4.7-14.24 9.27-.04z" stroke="#635dff" stroke-width="2" fill="#635dff"/><defs><path fill="#fff" d="M212-179c-10-28-35-45-73-45-59 0-87 40-87 99 0 60 29 101 89 101 43 0 62-24 78-52l27 14C228-24 195 4 139 4 59 4 22-46 18-125c-6-104 99-153 187-111 19 9 31 26 39 46" id="l"/><path fill="#fff" d="M24 0v-261h32V0H24" id="m"/><path fill="#fff" d="M100-194c62-1 85 37 85 99 1 63-27 99-86 99S16-35 15-95c0-66 28-99 85-99zM99-20c44 1 53-31 53-75 0-43-8-75-51-75s-53 32-53 75 10 74 51 75" id="n"/><path fill="#fff" d="M84 4C-5 8 30-112 23-190h32v120c0 31 7 50 39 49 72-2 45-101 50-169h31l1 190h-30c-1-10 1-25-2-33-11 22-28 36-60 37" id="o"/><path fill="#fff" d="M85-194c31 0 48 13 60 33l-1-100h32l1 261h-30c-2-10 0-23-3-31C134-8 116 4 85 4 32 4 16-35 15-94c0-66 23-100 70-100zm9 24c-40 0-46 34-46 75 0 40 6 74 45 74 42 0 51-32 51-76 0-42-9-74-50-73" id="p"/><path fill="#fff" d="M101-234c-31-9-42 10-38 44h38v23H63V0H32v-167H5v-23h27c-7-52 17-82 69-68v24" id="q"/><path fill="#fff" d="M141-36C126-15 110 5 73 4 37 3 15-17 15-53c-1-64 63-63 125-63 3-35-9-54-41-54-24 1-41 7-42 31l-33-3c5-37 33-52 76-52 45 0 72 20 72 64v82c-1 20 7 32 28 27v20c-31 9-61-2-59-35zM48-53c0 20 12 33 32 33 41-3 63-29 60-74-43 2-92-5-92 41" id="r"/><path fill="#fff" d="M114-163C36-179 61-72 57 0H25l-1-190h30c1 12-1 29 2 39 6-27 23-49 58-41v29" id="s"/><path fill="#fff" d="M100-194c63 0 86 42 84 106H49c0 40 14 67 53 68 26 1 43-12 49-29l28 8c-11 28-37 45-77 45C44 4 14-33 15-96c1-61 26-98 85-98zm52 81c6-60-76-77-97-28-3 7-6 17-6 28h103" id="t"/><g id="a"><use transform="matrix(0.05555555555555554,0,0,0.05555555555555554,0,0)" xlink:href="#l"/><use transform="matrix(0.05555555555555554,0,0,0.05555555555555554,14.388888888888884,0)" xlink:href="#m"/><use transform="matrix(0.05555555555555554,0,0,0.05555555555555554,18.77777777777777,0)" xlink:href="#n"/><use transform="matrix(0.05555555555555554,0,0,0.05555555555555554,29.88888888888888,0)" xlink:href="#o"/><use transform="matrix(0.05555555555555554,0,0,0.05555555555555554,40.999999999999986,0)" xlink:href="#p"/><use transform="matrix(0.05555555555555554,0,0,0.05555555555555554,52.11111111111109,0)" xlink:href="#q"/><use transform="matrix(0.05555555555555554,0,0,0.05555555555555554,57.66666666666665,0)" xlink:href="#m"/><use transform="matrix(0.05555555555555554,0,0,0.05555555555555554,62.05555555555552,0)" xlink:href="#r"/><use transform="matrix(0.05555555555555554,0,0,0.05555555555555554,73.16666666666663,0)" xlink:href="#s"/><use transform="matrix(0.05555555555555554,0,0,0.05555555555555554,79.77777777777774,0)" xlink:href="#t"/></g><path fill="#fff" d="M59-47c-2 24 18 29 38 22v24C64 9 27 4 27-40v-127H5v-23h24l9-43h21v43h35v23H59v120" id="u"/><path fill="#fff" d="M117-194c89-4 53 116 60 194h-32v-121c0-31-8-49-39-48C34-167 62-67 57 0H25l-1-190h30c1 10-1 24 2 32 11-22 29-35 61-36" id="v"/><g id="b"><use transform="matrix(0.05555555555555554,0,0,0.05555555555555554,0,0)" xlink:href="#u"/><use transform="matrix(0.05555555555555554,0,0,0.05555555555555554,5.555555555555554,0)" xlink:href="#o"/><use transform="matrix(0.05555555555555554,0,0,0.05555555555555554,16.66666666666666,0)" xlink:href="#v"/><use transform="matrix(0.05555555555555554,0,0,0.05555555555555554,27.777777777777768,0)" xlink:href="#v"/><use transform="matrix(0.05555555555555554,0,0,0.05555555555555554,38.88888888888887,0)" xlink:href="#t"/><use transform="matrix(0.05555555555555554,0,0,0.05555555555555554,49.99999999999998,0)" xlink:href="#m"/></g><path fill="#fff" d="M137 0h-34L2-248h35l83 218 83-218h36" id="w"/><path fill="#fff" d="M24-231v-30h32v30H24zM24 0v-190h32V0H24" id="x"/><g id="c"><use transform="matrix(0.05555555555555554,0,0,0.05555555555555554,0,0)" xlink:href="#w"/><use transform="matrix(0.05555555555555554,0,0,0.05555555555555554,12.94444444444444,0)" xlink:href="#x"/><use transform="matrix(0.05555555555555554,0,0,0.05555555555555554,17.33333333333333,0)" xlink:href="#s"/><use transform="matrix(0.05555555555555554,0,0,0.05555555555555554,23.944444444444436,0)" xlink:href="#u"/><use transform="matrix(0.05555555555555554,0,0,0.05555555555555554,29.49999999999999,0)" xlink:href="#o"/><use transform="matrix(0.05555555555555554,0,0,0.05555555555555554,40.6111111111111,0)" xlink:href="#r"/><use transform="matrix(0.05555555555555554,0,0,0.05555555555555554,51.72222222222221,0)" xlink:href="#m"/></g><path fill="#fff" d="M210-169c-67 3-38 105-44 169h-31v-121c0-29-5-50-35-48C34-165 62-65 56 0H25l-1-190h30c1 10-1 24 2 32 10-44 99-50 107 0 11-21 27-35 58-36 85-2 47 119 55 194h-31v-121c0-29-5-49-35-48" id="y"/><path fill="#fff" d="M96-169c-40 0-48 33-48 73s9 75 48 75c24 0 41-14 43-38l32 2c-6 37-31 61-74 61-59 0-76-41-82-99-10-93 101-131 147-64 4 7 5 14 7 22l-32 3c-4-21-16-35-41-35" id="z"/><path fill="#fff" d="M106-169C34-169 62-67 57 0H25v-261h32l-1 103c12-21 28-36 61-36 89 0 53 116 60 194h-32v-121c2-32-8-49-39-48" id="A"/><g id="d"><use transform="matrix(0.05555555555555554,0,0,0.05555555555555554,0,0)" xlink:href="#y"/><use transform="matrix(0.05555555555555554,0,0,0.05555555555555554,16.611111111111107,0)" xlink:href="#r"/><use transform="matrix(0.05555555555555554,0,0,0.05555555555555554,27.722222222222214,0)" xlink:href="#z"/><use transform="matrix(0.05555555555555554,0,0,0.05555555555555554,37.722222222222214,0)" xlink:href="#A"/><use transform="matrix(0.05555555555555554,0,0,0.05555555555555554,48.83333333333332,0)" xlink:href="#x"/><use transform="matrix(0.05555555555555554,0,0,0.05555555555555554,53.22222222222221,0)" xlink:href="#v"/><use transform="matrix(0.05555555555555554,0,0,0.05555555555555554,64.33333333333331,0)" xlink:href="#t"/></g><path fill="#fff" d="M30-248c118-7 216 8 213 122C240-48 200 0 122 0H30v-248zM63-27c89 8 146-16 146-99s-60-101-146-95v194" id="B"/><path fill="#fff" d="M143 0L79-87 56-68V0H24v-261h32v163l83-92h37l-77 82L181 0h-38" id="C"/><g id="e"><use transform="matrix(0.05555555555555554,0,0,0.05555555555555554,0,0)" xlink:href="#B"/><use transform="matrix(0.05555555555555554,0,0,0.05555555555555554,14.388888888888884,0)" xlink:href="#n"/><use transform="matrix(0.05555555555555554,0,0,0.05555555555555554,25.499999999999993,0)" xlink:href="#z"/><use transform="matrix(0.05555555555555554,0,0,0.05555555555555554,35.499999999999986,0)" xlink:href="#C"/><use transform="matrix(0.05555555555555554,0,0,0.05555555555555554,45.499999999999986,0)" xlink:href="#t"/><use transform="matrix(0.05555555555555554,0,0,0.05555555555555554,56.61111111111109,0)" xlink:href="#s"/></g><path fill="#fff" d="M206 0h-36l-40-164L89 0H53L-1-190h32L70-26l43-164h34l41 164 42-164h31" id="D"/><g id="f"><use transform="matrix(0.05555555555555554,0,0,0.05555555555555554,0,0)" xlink:href="#v"/><use transform="matrix(0.05555555555555554,0,0,0.05555555555555554,11.111111111111107,0)" xlink:href="#t"/><use transform="matrix(0.05555555555555554,0,0,0.05555555555555554,22.222222222222214,0)" xlink:href="#u"/><use transform="matrix(0.05555555555555554,0,0,0.05555555555555554,27.777777777777768,0)" xlink:href="#D"/><use transform="matrix(0.05555555555555554,0,0,0.05555555555555554,42.16666666666665,0)" xlink:href="#n"/><use transform="matrix(0.05555555555555554,0,0,0.05555555555555554,53.27777777777776,0)" xlink:href="#s"/><use transform="matrix(0.05555555555555554,0,0,0.05555555555555554,59.88888888888887,0)" xlink:href="#C"/></g><path fill="#fff" d="M233-177c-1 41-23 64-60 70L243 0h-38l-65-103H63V0H30v-248c88 3 205-21 203 71zM63-129c60-2 137 13 137-47 0-61-80-42-137-45v92" id="E"/><path fill="#fff" d="M108 0H70L1-190h34L89-25l56-165h34" id="F"/><path fill="#fff" d="M135-143c-3-34-86-38-87 0 15 53 115 12 119 90S17 21 10-45l28-5c4 36 97 45 98 0-10-56-113-15-118-90-4-57 82-63 122-42 12 7 21 19 24 35" id="G"/><g id="g"><use transform="matrix(0.05555555555555554,0,0,0.05555555555555554,0,0)" xlink:href="#E"/><use transform="matrix(0.05555555555555554,0,0,0.05555555555555554,14.388888888888884,0)" xlink:href="#t"/><use transform="matrix(0.05555555555555554,0,0,0.05555555555555554,25.499999999999993,0)" xlink:href="#F"/><use transform="matrix(0.05555555555555554,0,0,0.05555555555555554,35.499999999999986,0)" xlink:href="#t"/><use transform="matrix(0.05555555555555554,0,0,0.05555555555555554,46.61111111111109,0)" xlink:href="#s"/><use transform="matrix(0.05555555555555554,0,0,0.05555555555555554,53.2222222222222,0)" xlink:href="#G"/><use transform="matrix(0.05555555555555554,0,0,0.05555555555555554,63.2222222222222,0)" xlink:href="#t"/></g><path fill="#fff" d="M115-194c55 1 70 41 70 98S169 2 115 4C84 4 66-9 55-30l1 105H24l-1-265h31l2 30c10-21 28-34 59-34zm-8 174c40 0 45-34 45-75s-6-73-45-74c-42 0-51 32-51 76 0 43 10 73 51 73" id="H"/><path fill="#fff" d="M141 0L90-78 38 0H4l68-98-65-92h35l48 74 47-74h35l-64 92 68 98h-35" id="I"/><path fill="#fff" d="M179-190L93 31C79 59 56 82 12 73V49c39 6 53-20 64-50L1-190h34L92-34l54-156h33" id="J"/><g id="h"><use transform="matrix(0.05555555555555554,0,0,0.05555555555555554,0,0)" xlink:href="#H"/><use transform="matrix(0.05555555555555554,0,0,0.05555555555555554,11.111111111111107,0)" xlink:href="#s"/><use transform="matrix(0.05555555555555554,0,0,0.05555555555555554,17.722222222222214,0)" xlink:href="#n"/><use transform="matrix(0.05555555555555554,0,0,0.05555555555555554,28.833333333333325,0)" xlink:href="#I"/><use transform="matrix(0.05555555555555554,0,0,0.05555555555555554,38.833333333333314,0)" xlink:href="#J"/></g><g id="i"><use transform="matrix(0.05555555555555554,0,0,0.05555555555555554,0,0)" xlink:href="#z"/><use transform="matrix(0.05555555555555554,0,0,0.05555555555555554,9.999999999999996,0)" xlink:href="#n"/><use transform="matrix(0.05555555555555554,0,0,0.05555555555555554,21.111111111111104,0)" xlink:href="#v"/><use transform="matrix(0.05555555555555554,0,0,0.05555555555555554,32.222222222222214,0)" xlink:href="#u"/><use transform="matrix(0.05555555555555554,0,0,0.05555555555555554,37.77777777777777,0)" xlink:href="#r"/><use transform="matrix(0.05555555555555554,0,0,0.05555555555555554,48.88888888888888,0)" xlink:href="#x"/><use transform="matrix(0.05555555555555554,0,0,0.05555555555555554,53.277777777777764,0)" xlink:href="#v"/><use transform="matrix(0.05555555555555554,0,0,0.05555555555555554,64.38888888888887,0)" xlink:href="#t"/><use transform="matrix(0.05555555555555554,0,0,0.05555555555555554,75.49999999999997,0)" xlink:href="#s"/></g><path fill="#fff" d="M185-189c-5-48-123-54-124 2 14 75 158 14 163 119 3 78-121 87-175 55-17-10-28-26-33-46l33-7c5 56 141 63 141-1 0-78-155-14-162-118-5-82 145-84 179-34 5 7 8 16 11 25" id="K"/><g id="j"><use transform="matrix(0.05555555555555554,0,0,0.05555555555555554,0,0)" xlink:href="#K"/><use transform="matrix(0.05555555555555554,0,0,0.05555555555555554,13.333333333333329,0)" xlink:href="#t"/><use transform="matrix(0.05555555555555554,0,0,0.05555555555555554,24.444444444444436,0)" xlink:href="#s"/><use transform="matrix(0.05555555555555554,0,0,0.05555555555555554,31.055555555555546,0)" xlink:href="#F"/><use transform="matrix(0.05555555555555554,0,0,0.05555555555555554,41.05555555555554,0)" xlink:href="#t"/><use transform="matrix(0.05555555555555554,0,0,0.05555555555555554,52.16666666666665,0)" xlink:href="#s"/></g><g id="k"><use transform="matrix(0.05555555555555554,0,0,0.05555555555555554,0,0)" xlink:href="#z"/><use transform="matrix(0.05555555555555554,0,0,0.05555555555555554,9.999999999999996,0)" xlink:href="#n"/><use transform="matrix(0.05555555555555554,0,0,0.05555555555555554,21.111111111111104,0)" xlink:href="#v"/><use transform="matrix(0.05555555555555554,0,0,0.05555555555555554,32.222222222222214,0)" xlink:href="#u"/><use transform="matrix(0.05555555555555554,0,0,0.05555555555555554,37.77777777777777,0)" xlink:href="#r"/><use transform="matrix(0.05555555555555554,0,0,0.05555555555555554,48.88888888888888,0)" xlink:href="#x"/><use transform="matrix(0.05555555555555554,0,0,0.05555555555555554,53.277777777777764,0)" xlink:href="#v"/><use transform="matrix(0.05555555555555554,0,0,0.05555555555555554,64.38888888888887,0)" xlink:href="#t"/><use transform="matrix(0.05555555555555554,0,0,0.05555555555555554,75.49999999999997,0)" xlink:href="#s"/></g></defs></g></svg>