<svg xmlns="http://www.w3.org/2000/svg" xmlns:xlink="http://www.w3.org/1999/xlink" xmlns:lucid="lucid" width="286" height="491"><g transform="translate(18 -156)" lucid:page-tab-id="0_0"><path d="M36.06 179.58a6 6 0 0 1 6-6h170.72a6 6 0 0 1 6 6v50.95a6 6 0 0 1-6 6H42.06a6 6 0 0 1-6-6z" stroke="#635dff" stroke-width="3" fill-opacity="0"/><use xlink:href="#a" transform="matrix(1,0,0,1,39.2124501245882,176.7243373910784) translate(54.6388888888889 33.81249999999999)"/><path d="M36.06 376.3a6 6 0 0 1 6-6h170.72a6 6 0 0 1 6 6v50.94a6 6 0 0 1-6 6H42.06a6 6 0 0 1-6-6z" stroke="#635dff" stroke-width="3" fill-opacity="0"/><use xlink:href="#b" transform="matrix(1,0,0,1,39.2124501245882,373.43581206297443) translate(43.05555555555557 33.81249999999999)"/><path d="M36.06 573a6 6 0 0 1 6-6h170.72a6 6 0 0 1 6 6v50.95a6 6 0 0 1-6 6H42.06a6 6 0 0 1-6-6z" stroke="#635dff" stroke-width="3" fill-opacity="0"/><use xlink:href="#c" transform="matrix(1,0,0,1,39.212450124588216,570.1472867348705) translate(41.36111111111113 33.81249999999999)"/><use xlink:href="#d" transform="matrix(1,0,0,1,39.212450124588216,570.1472867348705) translate(105.69444444444444 33.81249999999999)"/><path d="M128.42 350.3h-2v-34.9h2zm0-58.9h-2v-52.37h2z" stroke="#635dff" stroke-width=".05" fill="#635dff"/><path d="M128.42 239.06h-2v-1.03h2z" fill="#635dff"/><path d="M128.45 239.08h-2.05V238h2.05zm-2-1.03v.98h1.95v-.98z" stroke="#635dff" stroke-width=".05" fill="#635dff"/><path d="M127.42 365.55l-4.63-14.26h9.26z" fill="#635dff"/><path d="M127.42 368.8l-6-18.5h12.02zm-3.26-16.5l3.26 10.02 3.26-10.03z" stroke="#635dff" stroke-width=".05" fill="#635dff"/><use xlink:href="#e" transform="matrix(1,0,0,1,32.617583743940614,291.40859306264315) translate(0 16)"/><use xlink:href="#f" transform="matrix(1,0,0,1,32.617583743940614,291.40859306264315) translate(52.05555555555555 16)"/><use xlink:href="#g" transform="matrix(1,0,0,1,32.617583743940614,291.40859306264315) translate(123 16)"/><path d="M128.42 547h-2v-34.88h2zm0-58.88h-2v-52.38h2z" stroke="#635dff" stroke-width=".05" fill="#635dff"/><path d="M128.42 435.77h-2v-1.03h2z" fill="#635dff"/><path d="M128.45 435.8h-2.05v-1.1h2.05zm-2-1.04v.98h1.95v-.98z" stroke="#635dff" stroke-width=".05" fill="#635dff"/><path d="M127.42 562.26L122.8 548h9.26z" fill="#635dff"/><path d="M127.42 565.5l-6-18.5h12.02zm-3.26-16.5l3.26 10.03 3.26-10.03z" stroke="#635dff" stroke-width=".05" fill="#635dff"/><use xlink:href="#h" transform="matrix(1,0,0,1,-0.8546384782816006,488.1200677345392) translate(0 16)"/><use xlink:href="#i" transform="matrix(1,0,0,1,-0.8546384782816006,488.1200677345392) translate(65.83333333333334 16)"/><use xlink:href="#j" transform="matrix(1,0,0,1,-0.8546384782816006,488.1200677345392) translate(139.11111111111114 16)"/><use xlink:href="#k" transform="matrix(1,0,0,1,-0.8546384782816006,488.1200677345392) translate(194.61111111111114 16)"/><path d="M-22.2 629.9h-2V379.87h2z" stroke="#635dff" stroke-width=".05" fill="#635dff"/><path d="M-22.2 379.9h-2v-1.02h2z" stroke="#635dff" stroke-width=".05" fill="#635dff"/><path d="M-23.2 645.16l-4.62-14.27h9.27z" fill="#635dff"/><path d="M-23.2 648.4l-6-18.5h12.02zm-3.25-16.5l3.26 10.02 3.27-10.03zM275.94 634.06h-2v-250h2z" stroke="#635dff" stroke-width=".05" fill="#635dff"/><path d="M275.94 384.08h-2v-1.03h2z" stroke="#635dff" stroke-width=".05" fill="#635dff"/><path d="M274.94 649.32l-4.63-14.26h9.28z" fill="#635dff"/><path d="M274.94 652.56l-6-18.5h12zm-3.25-16.5l3.24 10.03 3.26-10.04z" stroke="#635dff" stroke-width=".05" fill="#635dff"/><defs><path fill="#fff" d="M33 0v-248h34V0H33" id="l"/><path fill="#fff" d="M117-194c89-4 53 116 60 194h-32v-121c0-31-8-49-39-48C34-167 62-67 57 0H25l-1-190h30c1 10-1 24 2 32 11-22 29-35 61-36" id="m"/><path fill="#fff" d="M59-47c-2 24 18 29 38 22v24C64 9 27 4 27-40v-127H5v-23h24l9-43h21v43h35v23H59v120" id="n"/><path fill="#fff" d="M100-194c63 0 86 42 84 106H49c0 40 14 67 53 68 26 1 43-12 49-29l28 8c-11 28-37 45-77 45C44 4 14-33 15-96c1-61 26-98 85-98zm52 81c6-60-76-77-97-28-3 7-6 17-6 28h103" id="o"/><path fill="#fff" d="M114-163C36-179 61-72 57 0H25l-1-190h30c1 12-1 29 2 39 6-27 23-49 58-41v29" id="p"/><g id="a"><use transform="matrix(0.05555555555555554,0,0,0.05555555555555554,0,0)" xlink:href="#l"/><use transform="matrix(0.05555555555555554,0,0,0.05555555555555554,5.555555555555554,0)" xlink:href="#m"/><use transform="matrix(0.05555555555555554,0,0,0.05555555555555554,16.66666666666666,0)" xlink:href="#n"/><use transform="matrix(0.05555555555555554,0,0,0.05555555555555554,22.222222222222214,0)" xlink:href="#o"/><use transform="matrix(0.05555555555555554,0,0,0.05555555555555554,33.33333333333332,0)" xlink:href="#p"/><use transform="matrix(0.05555555555555554,0,0,0.05555555555555554,39.94444444444443,0)" xlink:href="#m"/><use transform="matrix(0.05555555555555554,0,0,0.05555555555555554,51.055555555555536,0)" xlink:href="#o"/><use transform="matrix(0.05555555555555554,0,0,0.05555555555555554,62.16666666666665,0)" xlink:href="#n"/></g><path fill="#fff" d="M212-179c-10-28-35-45-73-45-59 0-87 40-87 99 0 60 29 101 89 101 43 0 62-24 78-52l27 14C228-24 195 4 139 4 59 4 22-46 18-125c-6-104 99-153 187-111 19 9 31 26 39 46" id="q"/><path fill="#fff" d="M24 0v-261h32V0H24" id="r"/><path fill="#fff" d="M100-194c62-1 85 37 85 99 1 63-27 99-86 99S16-35 15-95c0-66 28-99 85-99zM99-20c44 1 53-31 53-75 0-43-8-75-51-75s-53 32-53 75 10 74 51 75" id="s"/><path fill="#fff" d="M84 4C-5 8 30-112 23-190h32v120c0 31 7 50 39 49 72-2 45-101 50-169h31l1 190h-30c-1-10 1-25-2-33-11 22-28 36-60 37" id="t"/><path fill="#fff" d="M85-194c31 0 48 13 60 33l-1-100h32l1 261h-30c-2-10 0-23-3-31C134-8 116 4 85 4 32 4 16-35 15-94c0-66 23-100 70-100zm9 24c-40 0-46 34-46 75 0 40 6 74 45 74 42 0 51-32 51-76 0-42-9-74-50-73" id="u"/><path fill="#fff" d="M101-234c-31-9-42 10-38 44h38v23H63V0H32v-167H5v-23h27c-7-52 17-82 69-68v24" id="v"/><path fill="#fff" d="M141-36C126-15 110 5 73 4 37 3 15-17 15-53c-1-64 63-63 125-63 3-35-9-54-41-54-24 1-41 7-42 31l-33-3c5-37 33-52 76-52 45 0 72 20 72 64v82c-1 20 7 32 28 27v20c-31 9-61-2-59-35zM48-53c0 20 12 33 32 33 41-3 63-29 60-74-43 2-92-5-92 41" id="w"/><g id="b"><use transform="matrix(0.05555555555555554,0,0,0.05555555555555554,0,0)" xlink:href="#q"/><use transform="matrix(0.05555555555555554,0,0,0.05555555555555554,14.388888888888884,0)" xlink:href="#r"/><use transform="matrix(0.05555555555555554,0,0,0.05555555555555554,18.77777777777777,0)" xlink:href="#s"/><use transform="matrix(0.05555555555555554,0,0,0.05555555555555554,29.88888888888888,0)" xlink:href="#t"/><use transform="matrix(0.05555555555555554,0,0,0.05555555555555554,40.999999999999986,0)" xlink:href="#u"/><use transform="matrix(0.05555555555555554,0,0,0.05555555555555554,52.11111111111109,0)" xlink:href="#v"/><use transform="matrix(0.05555555555555554,0,0,0.05555555555555554,57.66666666666665,0)" xlink:href="#r"/><use transform="matrix(0.05555555555555554,0,0,0.05555555555555554,62.05555555555552,0)" xlink:href="#w"/><use transform="matrix(0.05555555555555554,0,0,0.05555555555555554,73.16666666666663,0)" xlink:href="#p"/><use transform="matrix(0.05555555555555554,0,0,0.05555555555555554,79.77777777777774,0)" xlink:href="#o"/></g><path fill="#fff" d="M185-189c-5-48-123-54-124 2 14 75 158 14 163 119 3 78-121 87-175 55-17-10-28-26-33-46l33-7c5 56 141 63 141-1 0-78-155-14-162-118-5-82 145-84 179-34 5 7 8 16 11 25" id="x"/><path fill="#fff" d="M108 0H70L1-190h34L89-25l56-165h34" id="y"/><g id="c"><use transform="matrix(0.05555555555555554,0,0,0.05555555555555554,0,0)" xlink:href="#x"/><use transform="matrix(0.05555555555555554,0,0,0.05555555555555554,13.333333333333329,0)" xlink:href="#o"/><use transform="matrix(0.05555555555555554,0,0,0.05555555555555554,24.444444444444436,0)" xlink:href="#p"/><use transform="matrix(0.05555555555555554,0,0,0.05555555555555554,31.055555555555546,0)" xlink:href="#y"/><use transform="matrix(0.05555555555555554,0,0,0.05555555555555554,41.05555555555554,0)" xlink:href="#o"/><use transform="matrix(0.05555555555555554,0,0,0.05555555555555554,52.16666666666665,0)" xlink:href="#p"/></g><path fill="#fff" d="M137 0h-34L2-248h35l83 218 83-218h36" id="z"/><path fill="#fff" d="M240 0l2-218c-23 76-54 145-80 218h-23L58-218 59 0H30v-248h44l77 211c21-75 51-140 76-211h43V0h-30" id="A"/><g id="d"><use transform="matrix(0.05555555555555554,0,0,0.05555555555555554,0,0)" xlink:href="#z"/><use transform="matrix(0.05555555555555554,0,0,0.05555555555555554,13.333333333333329,0)" xlink:href="#A"/></g><path fill="#fff" d="M24-231v-30h32v30H24zM24 0v-190h32V0H24" id="B"/><g id="e"><use transform="matrix(0.05555555555555555,0,0,0.05555555555555555,0,0)" xlink:href="#l"/><use transform="matrix(0.05555555555555555,0,0,0.05555555555555555,5.555555555555555,0)" xlink:href="#m"/><use transform="matrix(0.05555555555555555,0,0,0.05555555555555555,16.666666666666664,0)" xlink:href="#B"/><use transform="matrix(0.05555555555555555,0,0,0.05555555555555555,21.055555555555554,0)" xlink:href="#n"/><use transform="matrix(0.05555555555555555,0,0,0.05555555555555555,26.611111111111107,0)" xlink:href="#B"/><use transform="matrix(0.05555555555555555,0,0,0.05555555555555555,31,0)" xlink:href="#w"/><use transform="matrix(0.05555555555555555,0,0,0.05555555555555555,42.11111111111111,0)" xlink:href="#r"/></g><path fill="#fff" d="M197 0v-115H63V0H30v-248h33v105h134v-105h34V0h-34" id="C"/><path fill="#fff" d="M127-220V0H93v-220H8v-28h204v28h-85" id="D"/><path fill="#fff" d="M30-248c87 1 191-15 191 75 0 78-77 80-158 76V0H30v-248zm33 125c57 0 124 11 124-50 0-59-68-47-124-48v98" id="E"/><g id="f"><use transform="matrix(0.05555555555555555,0,0,0.05555555555555555,0,0)" xlink:href="#C"/><use transform="matrix(0.05555555555555555,0,0,0.05555555555555555,14.388888888888888,0)" xlink:href="#D"/><use transform="matrix(0.05555555555555555,0,0,0.05555555555555555,26.555555555555554,0)" xlink:href="#D"/><use transform="matrix(0.05555555555555555,0,0,0.05555555555555555,38.72222222222222,0)" xlink:href="#E"/><use transform="matrix(0.05555555555555555,0,0,0.05555555555555555,52.05555555555556,0)" xlink:href="#x"/></g><path fill="#fff" d="M145-31C134-9 116 4 85 4 32 4 16-35 15-94c0-59 17-99 70-100 32-1 48 14 60 33 0-11-1-24 2-32h30l-1 268h-32zM93-21c41 0 51-33 51-76s-8-73-50-73c-40 0-46 35-46 75s5 74 45 74" id="F"/><path fill="#fff" d="M135-143c-3-34-86-38-87 0 15 53 115 12 119 90S17 21 10-45l28-5c4 36 97 45 98 0-10-56-113-15-118-90-4-57 82-63 122-42 12 7 21 19 24 35" id="G"/><g id="g"><use transform="matrix(0.05555555555555555,0,0,0.05555555555555555,0,0)" xlink:href="#p"/><use transform="matrix(0.05555555555555555,0,0,0.05555555555555555,6.611111111111111,0)" xlink:href="#o"/><use transform="matrix(0.05555555555555555,0,0,0.05555555555555555,17.72222222222222,0)" xlink:href="#F"/><use transform="matrix(0.05555555555555555,0,0,0.05555555555555555,28.833333333333332,0)" xlink:href="#t"/><use transform="matrix(0.05555555555555555,0,0,0.05555555555555555,39.94444444444444,0)" xlink:href="#o"/><use transform="matrix(0.05555555555555555,0,0,0.05555555555555555,51.05555555555556,0)" xlink:href="#G"/><use transform="matrix(0.05555555555555555,0,0,0.05555555555555555,61.05555555555555,0)" xlink:href="#n"/></g><g id="h"><use transform="matrix(0.05555555555555555,0,0,0.05555555555555555,0,0)" xlink:href="#D"/><use transform="matrix(0.05555555555555555,0,0,0.05555555555555555,11.444444444444445,0)" xlink:href="#t"/><use transform="matrix(0.05555555555555555,0,0,0.05555555555555555,22.555555555555557,0)" xlink:href="#m"/><use transform="matrix(0.05555555555555555,0,0,0.05555555555555555,33.66666666666667,0)" xlink:href="#m"/><use transform="matrix(0.05555555555555555,0,0,0.05555555555555555,44.777777777777786,0)" xlink:href="#o"/><use transform="matrix(0.05555555555555555,0,0,0.05555555555555555,55.8888888888889,0)" xlink:href="#r"/></g><path fill="#fff" d="M106-169C34-169 62-67 57 0H25v-261h32l-1 103c12-21 28-36 61-36 89 0 53 116 60 194h-32v-121c2-32-8-49-39-48" id="H"/><path fill="#fff" d="M177-190C167-65 218 103 67 71c-23-6-38-20-44-43l32-5c15 47 100 32 89-28v-30C133-14 115 1 83 1 29 1 15-40 15-95c0-56 16-97 71-98 29-1 48 16 59 35 1-10 0-23 2-32h30zM94-22c36 0 50-32 50-73 0-42-14-75-50-75-39 0-46 34-46 75s6 73 46 73" id="I"/><g id="i"><use transform="matrix(0.05555555555555555,0,0,0.05555555555555555,0,0)" xlink:href="#n"/><use transform="matrix(0.05555555555555555,0,0,0.05555555555555555,5.555555555555555,0)" xlink:href="#H"/><use transform="matrix(0.05555555555555555,0,0,0.05555555555555555,16.666666666666664,0)" xlink:href="#p"/><use transform="matrix(0.05555555555555555,0,0,0.05555555555555555,23.277777777777775,0)" xlink:href="#s"/><use transform="matrix(0.05555555555555555,0,0,0.05555555555555555,34.388888888888886,0)" xlink:href="#t"/><use transform="matrix(0.05555555555555555,0,0,0.05555555555555555,45.5,0)" xlink:href="#I"/><use transform="matrix(0.05555555555555555,0,0,0.05555555555555555,56.611111111111114,0)" xlink:href="#H"/></g><path fill="#fff" d="M210-169c-67 3-38 105-44 169h-31v-121c0-29-5-50-35-48C34-165 62-65 56 0H25l-1-190h30c1 10-1 24 2 32 10-44 99-50 107 0 11-21 27-35 58-36 85-2 47 119 55 194h-31v-121c0-29-5-49-35-48" id="J"/><g id="j"><use transform="matrix(0.05555555555555555,0,0,0.05555555555555555,0,0)" xlink:href="#H"/><use transform="matrix(0.05555555555555555,0,0,0.05555555555555555,11.11111111111111,0)" xlink:href="#s"/><use transform="matrix(0.05555555555555555,0,0,0.05555555555555555,22.22222222222222,0)" xlink:href="#J"/><use transform="matrix(0.05555555555555555,0,0,0.05555555555555555,38.83333333333333,0)" xlink:href="#o"/></g><path fill="#fff" d="M206 0h-36l-40-164L89 0H53L-1-190h32L70-26l43-164h34l41 164 42-164h31" id="K"/><g id="k"><use transform="matrix(0.05555555555555555,0,0,0.05555555555555555,0,0)" xlink:href="#v"/><use transform="matrix(0.05555555555555555,0,0,0.05555555555555555,5.555555555555555,0)" xlink:href="#B"/><use transform="matrix(0.05555555555555555,0,0,0.05555555555555555,9.944444444444443,0)" xlink:href="#p"/><use transform="matrix(0.05555555555555555,0,0,0.05555555555555555,16.555555555555554,0)" xlink:href="#o"/><use transform="matrix(0.05555555555555555,0,0,0.05555555555555555,27.666666666666664,0)" xlink:href="#K"/><use transform="matrix(0.05555555555555555,0,0,0.05555555555555555,42.05555555555555,0)" xlink:href="#w"/><use transform="matrix(0.05555555555555555,0,0,0.05555555555555555,53.16666666666666,0)" xlink:href="#r"/><use transform="matrix(0.05555555555555555,0,0,0.05555555555555555,57.55555555555554,0)" xlink:href="#r"/></g></defs></g></svg>